<svg xmlns="http://www.w3.org/2000/svg" viewBox="0 0 50 50"><path d="M39.3 34.2c-.1 0-.1 0 0 0l-6.2-.9c-1-.6-1.1-2.2-1.1-3.9 1.9-2 3.1-4.8 3.1-7.9v-.3c1.5-1.3 2.3-3.2 2.3-5.2v-4.7c0-3.9-3.1-7-7-7H20.3c-1.5 0-2.7 1-3 2.4-2.7.3-4.8 2.6-4.8 5.4V16c0 2 .9 3.9 2.3 5.2v.3c0 3.1 1.2 5.9 3.1 7.9 0 1.7-.1 3.3-1.1 3.9l-6.1.9h-.1c-1.3.4-2.5 1.2-3.3 2.4-.7 1.1-1.2 2.4-1.2 3.7v3c0 1.3 1.1 2.3 2.5 2.3H41c1.4 0 2.5-1 2.5-2.3v-3c0-1.3-.4-2.6-1.2-3.7-.5-1.2-1.7-2-3-2.4zM25 32.4c2 0 4-.7 5.6-1.8.1 1.3.3 2.8 1.4 3.7-.6 3-3.5 5.2-7 5.2s-6.4-2.2-7-5.2c1.1-.9 1.4-2.4 1.4-3.7 1.6 1.1 3.6 1.8 5.6 1.8zM16.3 21v-4.1c0-1.3 1.1-2.4 2.4-2.4H32c.4 0 .7-.3.7-.7 0-.4-.3-.7-.7-.7H18.7c-2.1 0-3.9 1.7-3.9 3.9v2c-.6-.9-.9-1.9-.9-3v-3.9c0-2.2 1.8-4 4-4 .4 0 .7-.3.7-.7 0-.9.7-1.6 1.6-1.6h10.2c3 0 5.5 2.5 5.5 5.5V16c0 1.1-.3 2.1-.9 3v-3c0-.4-.3-.7-.7-.7s-.7.3-.7.7v5.5c0 5.2-3.9 9.4-8.7 9.4s-8.7-4.2-8.7-9.4V21h.1zm26 22.4c0 .4-.5.8-1 .8H8.8c-.6 0-1-.4-1-.8v-3c0-1.9 1.2-4.1 3.3-4.7l5.5-.8c.8 3.6 4.3 6.2 8.4 6.2s7.6-2.6 8.4-6.2l5.5.8c2.2.6 3.3 2.8 3.3 4.7v3h.1z"/><path d="M4.6 37.2H1.9c-.2 0-.4-.1-.4-.3v-2c0-1.1.7-2.4 2-2.8l4-.6h.3c.8-.6 1.1-1.5 1.2-2.4 1 .6 2.1.9 3.3.9 1 0 2-.2 2.9-.7.4-.2.5-.6.3-1s-.6-.5-1-.3c-.7.3-1.4.5-2.2.5-2.9 0-5.3-2.6-5.3-5.9v-3.1c0-.7.6-1.3 1.3-1.3h1.9c.4 0 .7-.3.7-.7 0-.4-.3-.7-.7-.7h-2c-1.5 0-2.8 1.2-2.8 2.8v.4c-.1-.3-.1-.5-.1-.8v-2.5c0-1.3 1-2.3 2.3-2.3.4 0 .7-.3.7-.7 0-.4.4-.8.8-.8h.9c.4 0 .7-.3.7-.7 0-.4-.3-.7-.7-.7h-.8c-1 0-1.9.7-2.1 1.6C5.3 13.4 4 15 4 16.8v2.5c0 1.4.6 2.6 1.6 3.5 0 2.1.8 4 2.1 5.3 0 .9-.1 1.8-.5 2.1l-3.9.6h-.1C1.2 31.4.1 33.3.1 35v2c0 1 .8 1.7 1.9 1.7h2.8c.4 0 .7-.3.7-.7-.1-.5-.4-.8-.9-.8zm42.3-6.5l-4-.6c-.5-.3-.5-1.2-.5-2.1 1.3-1.3 2.1-3.2 2.1-5.3 1-.9 1.6-2.2 1.6-3.5v-4c0-2.1-1.7-3.9-3.9-3.9h-2.3c-.4 0-.7.3-.7.7 0 .4.3.7.7.7h2.3c1.3 0 2.4 1.1 2.4 2.4v4c0 .3 0 .5-.1.8v-.4c0-1.5-1.2-2.8-2.8-2.8h-1.9c-.4 0-.7.3-.7.7 0 .4.3.7.7.7h1.9c.7 0 1.3.6 1.3 1.3v3.1c0 3.2-2.4 5.9-5.3 5.9-.8 0-1.5-.2-2.2-.5-.4-.2-.8 0-1 .3-.2.4 0 .8.3 1 .9.4 1.9.7 2.9.7 1.2 0 2.3-.3 3.3-.9.1.9.4 1.8 1.3 2.3h.3l4 .6c1.3.4 2 1.7 2 2.8v2c0 .1-.2.3-.4.3h-2.8c-.4 0-.7.3-.7.7 0 .4.3.7.7.7h2.8c1 0 1.9-.8 1.9-1.7v-2c-.1-1.4-1.2-3.4-3.2-4z"/></svg>