<svg xmlns="http://www.w3.org/2000/svg" width="74.75" height="79.94" viewBox="0 0 74.75 79.94"><title>media</title><path d="M26.38 47.87a23 23 0 0 1-14.88-4.08 23.06 23.06 0 0 1-9.61-14.94 23.06 23.06 0 0 1 3.76-17.36 23.06 23.06 0 0 1 14.94-9.61 23.06 23.06 0 0 1 17.35 3.77 23.06 23.06 0 0 1 9.63 14.94 23.14 23.14 0 0 1-.34 9.87 5.79 5.79 0 0 1 1.45.44 24.64 24.64 0 0 0 .38-10.58A24.56 24.56 0 0 0 38.81 4.41a24.56 24.56 0 0 0-18.49-4 24.56 24.56 0 0 0-15.9 10.22 24.56 24.56 0 0 0-4 18.49 24.56 24.56 0 0 0 10.22 15.91 24.53 24.53 0 0 0 15.93 4.34 4.94 4.94 0 0 1-.19-1.5z"/><path d="M17.75 19.88a8.48 8.48 0 1 0 11.81-2.13 8.49 8.49 0 0 0-11.81 2.13zm12.7 8.81a7 7 0 1 1-1.76-9.71 7 7 0 0 1 1.77 9.72z"/><path d="M20.94 22.09a4.62 4.62 0 1 0 6.43-1.16 4.62 4.62 0 0 0-6.43 1.16zm6.35 4.41a3.11 3.11 0 1 1-.78-4.33 3.12 3.12 0 0 1 .77 4.32zM7.59 12.83l1.24.86a19.37 19.37 0 0 1 26.92-4.87l.86-1.24a20.88 20.88 0 0 0-29.02 5.25zm-.27 3.42l-1.38-.64a20.77 20.77 0 0 0-1.43 3.89l1.46.38a19.26 19.26 0 0 1 1.35-3.63zm60.02 56.28a25.3 25.3 0 1 0-17.89 7.41h25.3v-5.19h-9.94a25.68 25.68 0 0 0 2.53-2.22zm-15.87 5.82h-2.02a23.8 23.8 0 1 1 16.83-7 24 24 0 0 1-4.09 3.28l-.18.11a23.71 23.71 0 0 1-10.43 3.48zm21.78-2.1v2.19H58.08a25 25 0 0 0 4.54-2.19z"/><path d="M30.12 62.33l-1.4.56a22.12 22.12 0 0 0 2.76 5l1.21-.89a20.62 20.62 0 0 1-2.57-4.67zm4.63 7.01c-.29-.29-.57-.58-.84-.88l-1.12 1c.29.32.59.64.89.95a22.15 22.15 0 0 0 15.76 6.53v-1.5a20.66 20.66 0 0 1-14.69-6.1zm14.7-30.96a5.59 5.59 0 1 0 5.59 5.59 5.6 5.6 0 0 0-5.59-5.59zm0 9.68a4.09 4.09 0 1 1 4.09-4.09 4.1 4.1 0 0 1-4.09 4.1zm0 11.65a5.59 5.59 0 1 0 5.59 5.59 5.6 5.6 0 0 0-5.59-5.59zm0 9.68a4.09 4.09 0 1 1 4.09-4.09 4.1 4.1 0 0 1-4.09 4.09zm10.66-20.35a5.59 5.59 0 1 0 5.59 5.59 5.6 5.6 0 0 0-5.59-5.59zm0 9.68a4.09 4.09 0 1 1 4.09-4.09 4.1 4.1 0 0 1-4.09 4.1zm-21.32-9.68a5.59 5.59 0 1 0 5.59 5.59 5.6 5.6 0 0 0-5.59-5.59zm0 9.68a4.09 4.09 0 1 1 4.09-4.09 4.1 4.1 0 0 1-4.09 4.1z"/></svg>